<mxfile host="drawio-plugin" modified="2024-03-14T14:28:58.496Z" agent="5.0 (Windows NT 10.0; Win64; x64) AppleWebKit/537.36 (KHTML, like Gecko) Chrome/111.0.0.0 Safari/537.36" etag="RUEyHbKsSqiaxztx6_Ha" version="20.5.3" type="embed" pages="3"><diagram name="Page-1" id="FfVIi07mpyi2BEAG_MNZ"><mxGraphModel dx="629" dy="1196" grid="0" gridSize="10" guides="1" tooltips="1" connect="1" arrows="1" fold="1" page="0" pageScale="1" pageWidth="850" pageHeight="1100" math="0" shadow="0"><root><mxCell id="0"/><mxCell id="1" parent="0"/><mxCell id="qNy3HbN_EDeQJ4Fwauo_-4" style="edgeStyle=orthogonalEdgeStyle;rounded=0;orthogonalLoop=1;jettySize=auto;html=1;" parent="1" source="qNy3HbN_EDeQJ4Fwauo_-1" edge="1"><mxGeometry relative="1" as="geometry"><mxPoint x="1060" y="60" as="targetPoint"/></mxGeometry></mxCell><mxCell id="qNy3HbN_EDeQJ4Fwauo_-1" value="INICIO" style="ellipse;whiteSpace=wrap;html=1;" parent="1" vertex="1"><mxGeometry x="1000" y="-70" width="120" height="80" as="geometry"/></mxCell><mxCell id="qNy3HbN_EDeQJ4Fwauo_-7" value="" style="edgeStyle=orthogonalEdgeStyle;rounded=0;orthogonalLoop=1;jettySize=auto;html=1;" parent="1" source="qNy3HbN_EDeQJ4Fwauo_-5" target="qNy3HbN_EDeQJ4Fwauo_-6" edge="1"><mxGeometry relative="1" as="geometry"/></mxCell><mxCell id="qNy3HbN_EDeQJ4Fwauo_-5" value="Request_Controller" style="rounded=1;whiteSpace=wrap;html=1;" parent="1" vertex="1"><mxGeometry x="1000" y="60" width="120" height="40" as="geometry"/></mxCell><mxCell id="qNy3HbN_EDeQJ4Fwauo_-9" value="" style="edgeStyle=orthogonalEdgeStyle;rounded=0;orthogonalLoop=1;jettySize=auto;html=1;" parent="1" source="qNy3HbN_EDeQJ4Fwauo_-6" target="qNy3HbN_EDeQJ4Fwauo_-8" edge="1"><mxGeometry relative="1" as="geometry"/></mxCell><mxCell id="qNy3HbN_EDeQJ4Fwauo_-6" value="Request" style="whiteSpace=wrap;html=1;rounded=1;" parent="1" vertex="1"><mxGeometry x="1000" y="150" width="120" height="30" as="geometry"/></mxCell><mxCell id="qNy3HbN_EDeQJ4Fwauo_-14" value="" style="edgeStyle=orthogonalEdgeStyle;rounded=0;orthogonalLoop=1;jettySize=auto;html=1;" parent="1" source="qNy3HbN_EDeQJ4Fwauo_-8" target="qNy3HbN_EDeQJ4Fwauo_-13" edge="1"><mxGeometry relative="1" as="geometry"/></mxCell><mxCell id="qNy3HbN_EDeQJ4Fwauo_-8" value="Log_Ingreso" style="whiteSpace=wrap;html=1;rounded=1;" parent="1" vertex="1"><mxGeometry x="1000" y="220" width="120" height="30" as="geometry"/></mxCell><mxCell id="qNy3HbN_EDeQJ4Fwauo_-17" value="" style="edgeStyle=orthogonalEdgeStyle;rounded=0;orthogonalLoop=1;jettySize=auto;html=1;" parent="1" source="qNy3HbN_EDeQJ4Fwauo_-13" target="qNy3HbN_EDeQJ4Fwauo_-16" edge="1"><mxGeometry relative="1" as="geometry"/></mxCell><mxCell id="qNy3HbN_EDeQJ4Fwauo_-21" value="" style="edgeStyle=orthogonalEdgeStyle;rounded=0;orthogonalLoop=1;jettySize=auto;html=1;" parent="1" source="qNy3HbN_EDeQJ4Fwauo_-13" target="qNy3HbN_EDeQJ4Fwauo_-20" edge="1"><mxGeometry relative="1" as="geometry"/></mxCell><mxCell id="qNy3HbN_EDeQJ4Fwauo_-13" value="Condicional&lt;div&gt;Password_Null&lt;/div&gt;" style="rhombus;whiteSpace=wrap;html=1;rounded=1;" parent="1" vertex="1"><mxGeometry x="995" y="290" width="130" height="130" as="geometry"/></mxCell><mxCell id="qNy3HbN_EDeQJ4Fwauo_-19" value="" style="edgeStyle=orthogonalEdgeStyle;rounded=0;orthogonalLoop=1;jettySize=auto;html=1;" parent="1" source="qNy3HbN_EDeQJ4Fwauo_-16" target="qNy3HbN_EDeQJ4Fwauo_-18" edge="1"><mxGeometry relative="1" as="geometry"/></mxCell><mxCell id="qNy3HbN_EDeQJ4Fwauo_-16" value="Si_Existe" style="whiteSpace=wrap;html=1;rounded=1;" parent="1" vertex="1"><mxGeometry x="820" y="440" width="120" height="40" as="geometry"/></mxCell><mxCell id="qNy3HbN_EDeQJ4Fwauo_-29" value="" style="edgeStyle=orthogonalEdgeStyle;rounded=0;orthogonalLoop=1;jettySize=auto;html=1;" parent="1" source="qNy3HbN_EDeQJ4Fwauo_-18" target="qNy3HbN_EDeQJ4Fwauo_-28" edge="1"><mxGeometry relative="1" as="geometry"><Array as="points"><mxPoint x="880" y="675"/></Array></mxGeometry></mxCell><mxCell id="qNy3HbN_EDeQJ4Fwauo_-18" value="Conceder_Servicio" style="whiteSpace=wrap;html=1;rounded=1;" parent="1" vertex="1"><mxGeometry x="820" y="520" width="120" height="60" as="geometry"/></mxCell><mxCell id="qNy3HbN_EDeQJ4Fwauo_-23" value="" style="edgeStyle=orthogonalEdgeStyle;rounded=0;orthogonalLoop=1;jettySize=auto;html=1;" parent="1" source="qNy3HbN_EDeQJ4Fwauo_-20" target="qNy3HbN_EDeQJ4Fwauo_-22" edge="1"><mxGeometry relative="1" as="geometry"/></mxCell><mxCell id="qNy3HbN_EDeQJ4Fwauo_-20" value="No_Existe" style="whiteSpace=wrap;html=1;rounded=1;" parent="1" vertex="1"><mxGeometry x="1180" y="440" width="120" height="40" as="geometry"/></mxCell><mxCell id="qNy3HbN_EDeQJ4Fwauo_-41" style="edgeStyle=orthogonalEdgeStyle;rounded=0;orthogonalLoop=1;jettySize=auto;html=1;" parent="1" source="qNy3HbN_EDeQJ4Fwauo_-22" target="qNy3HbN_EDeQJ4Fwauo_-39" edge="1"><mxGeometry relative="1" as="geometry"><Array as="points"><mxPoint x="1350" y="545"/><mxPoint x="1350" y="1270"/><mxPoint x="1060" y="1270"/></Array></mxGeometry></mxCell><mxCell id="qNy3HbN_EDeQJ4Fwauo_-22" value="Error_Request" style="whiteSpace=wrap;html=1;rounded=1;" parent="1" vertex="1"><mxGeometry x="1180" y="520" width="120" height="50" as="geometry"/></mxCell><mxCell id="qNy3HbN_EDeQJ4Fwauo_-31" value="" style="edgeStyle=orthogonalEdgeStyle;rounded=0;orthogonalLoop=1;jettySize=auto;html=1;" parent="1" source="qNy3HbN_EDeQJ4Fwauo_-28" target="qNy3HbN_EDeQJ4Fwauo_-30" edge="1"><mxGeometry relative="1" as="geometry"><Array as="points"><mxPoint x="1060" y="750"/><mxPoint x="880" y="750"/></Array></mxGeometry></mxCell><mxCell id="qNy3HbN_EDeQJ4Fwauo_-34" value="" style="edgeStyle=orthogonalEdgeStyle;rounded=0;orthogonalLoop=1;jettySize=auto;html=1;" parent="1" source="qNy3HbN_EDeQJ4Fwauo_-28" target="qNy3HbN_EDeQJ4Fwauo_-33" edge="1"><mxGeometry relative="1" as="geometry"><Array as="points"><mxPoint x="1060" y="750"/><mxPoint x="1215" y="750"/></Array></mxGeometry></mxCell><mxCell id="qNy3HbN_EDeQJ4Fwauo_-28" value="Condicional&lt;div&gt;User_Controller&lt;/div&gt;" style="rhombus;whiteSpace=wrap;html=1;rounded=1;" parent="1" vertex="1"><mxGeometry x="1000" y="620" width="120" height="110" as="geometry"/></mxCell><mxCell id="qNy3HbN_EDeQJ4Fwauo_-36" value="" style="edgeStyle=orthogonalEdgeStyle;rounded=0;orthogonalLoop=1;jettySize=auto;html=1;" parent="1" source="qNy3HbN_EDeQJ4Fwauo_-30" target="qNy3HbN_EDeQJ4Fwauo_-35" edge="1"><mxGeometry relative="1" as="geometry"/></mxCell><mxCell id="qNy3HbN_EDeQJ4Fwauo_-30" value="Si_Existe" style="whiteSpace=wrap;html=1;rounded=1;" parent="1" vertex="1"><mxGeometry x="820" y="780" width="120" height="60" as="geometry"/></mxCell><mxCell id="qNy3HbN_EDeQJ4Fwauo_-43" value="" style="edgeStyle=orthogonalEdgeStyle;rounded=0;orthogonalLoop=1;jettySize=auto;html=1;" parent="1" source="qNy3HbN_EDeQJ4Fwauo_-33" target="qNy3HbN_EDeQJ4Fwauo_-42" edge="1"><mxGeometry relative="1" as="geometry"/></mxCell><mxCell id="qNy3HbN_EDeQJ4Fwauo_-33" value="No_Exista" style="whiteSpace=wrap;html=1;rounded=1;" parent="1" vertex="1"><mxGeometry x="1155" y="780" width="120" height="60" as="geometry"/></mxCell><mxCell id="qNy3HbN_EDeQJ4Fwauo_-38" value="" style="edgeStyle=orthogonalEdgeStyle;rounded=0;orthogonalLoop=1;jettySize=auto;html=1;" parent="1" target="qNy3HbN_EDeQJ4Fwauo_-37" edge="1"><mxGeometry relative="1" as="geometry"><mxPoint x="880.0588235294117" y="930" as="sourcePoint"/><Array as="points"><mxPoint x="880" y="1020"/></Array></mxGeometry></mxCell><mxCell id="qNy3HbN_EDeQJ4Fwauo_-35" value="User_Request_Sucessfull" style="whiteSpace=wrap;html=1;rounded=1;" parent="1" vertex="1"><mxGeometry x="805" y="890" width="150" height="60" as="geometry"/></mxCell><mxCell id="qNy3HbN_EDeQJ4Fwauo_-40" value="" style="edgeStyle=orthogonalEdgeStyle;rounded=0;orthogonalLoop=1;jettySize=auto;html=1;" parent="1" source="qNy3HbN_EDeQJ4Fwauo_-37" target="qNy3HbN_EDeQJ4Fwauo_-39" edge="1"><mxGeometry relative="1" as="geometry"/></mxCell><mxCell id="qNy3HbN_EDeQJ4Fwauo_-37" value="Asignacion_Log" style="whiteSpace=wrap;html=1;rounded=1;" parent="1" vertex="1"><mxGeometry x="1000" y="990" width="120" height="60" as="geometry"/></mxCell><mxCell id="qNy3HbN_EDeQJ4Fwauo_-39" value="FIN" style="ellipse;whiteSpace=wrap;html=1;rounded=1;" parent="1" vertex="1"><mxGeometry x="1020" y="1150" width="80" height="80" as="geometry"/></mxCell><mxCell id="qNy3HbN_EDeQJ4Fwauo_-44" style="edgeStyle=orthogonalEdgeStyle;rounded=0;orthogonalLoop=1;jettySize=auto;html=1;" parent="1" source="qNy3HbN_EDeQJ4Fwauo_-42" target="qNy3HbN_EDeQJ4Fwauo_-39" edge="1"><mxGeometry relative="1" as="geometry"><Array as="points"><mxPoint x="1215" y="1190"/></Array></mxGeometry></mxCell><mxCell id="qNy3HbN_EDeQJ4Fwauo_-42" value="User_Request_Error" style="whiteSpace=wrap;html=1;rounded=1;" parent="1" vertex="1"><mxGeometry x="1155" y="890" width="120" height="60" as="geometry"/></mxCell><mxCell id="qNy3HbN_EDeQJ4Fwauo_-47" value="" style="edgeStyle=orthogonalEdgeStyle;rounded=0;orthogonalLoop=1;jettySize=auto;html=1;" parent="1" source="qNy3HbN_EDeQJ4Fwauo_-45" target="qNy3HbN_EDeQJ4Fwauo_-46" edge="1"><mxGeometry relative="1" as="geometry"/></mxCell><mxCell id="qNy3HbN_EDeQJ4Fwauo_-45" value="INICIO" style="ellipse;whiteSpace=wrap;html=1;aspect=fixed;" parent="1" vertex="1"><mxGeometry x="1670" y="-50" width="80" height="80" as="geometry"/></mxCell><mxCell id="qNy3HbN_EDeQJ4Fwauo_-49" value="" style="edgeStyle=orthogonalEdgeStyle;rounded=0;orthogonalLoop=1;jettySize=auto;html=1;" parent="1" source="qNy3HbN_EDeQJ4Fwauo_-46" target="qNy3HbN_EDeQJ4Fwauo_-48" edge="1"><mxGeometry relative="1" as="geometry"/></mxCell><mxCell id="qNy3HbN_EDeQJ4Fwauo_-46" value="Request_Controller" style="ellipse;whiteSpace=wrap;html=1;" parent="1" vertex="1"><mxGeometry x="1650" y="80" width="120" height="120" as="geometry"/></mxCell><mxCell id="qNy3HbN_EDeQJ4Fwauo_-53" value="" style="edgeStyle=orthogonalEdgeStyle;rounded=0;orthogonalLoop=1;jettySize=auto;html=1;" parent="1" source="qNy3HbN_EDeQJ4Fwauo_-48" target="qNy3HbN_EDeQJ4Fwauo_-52" edge="1"><mxGeometry relative="1" as="geometry"/></mxCell><mxCell id="qNy3HbN_EDeQJ4Fwauo_-48" value="Request" style="ellipse;whiteSpace=wrap;html=1;" parent="1" vertex="1"><mxGeometry x="1670" y="260" width="80" height="80" as="geometry"/></mxCell><mxCell id="qNy3HbN_EDeQJ4Fwauo_-55" value="" style="edgeStyle=orthogonalEdgeStyle;rounded=0;orthogonalLoop=1;jettySize=auto;html=1;" parent="1" source="qNy3HbN_EDeQJ4Fwauo_-52" target="qNy3HbN_EDeQJ4Fwauo_-54" edge="1"><mxGeometry relative="1" as="geometry"/></mxCell><mxCell id="qNy3HbN_EDeQJ4Fwauo_-52" value="Log_Ingreso" style="ellipse;whiteSpace=wrap;html=1;" parent="1" vertex="1"><mxGeometry x="1670" y="390" width="80" height="80" as="geometry"/></mxCell><mxCell id="qNy3HbN_EDeQJ4Fwauo_-57" value="" style="edgeStyle=orthogonalEdgeStyle;rounded=0;orthogonalLoop=1;jettySize=auto;html=1;" parent="1" source="qNy3HbN_EDeQJ4Fwauo_-54" target="qNy3HbN_EDeQJ4Fwauo_-56" edge="1"><mxGeometry relative="1" as="geometry"/></mxCell><mxCell id="qNy3HbN_EDeQJ4Fwauo_-59" value="" style="edgeStyle=orthogonalEdgeStyle;rounded=0;orthogonalLoop=1;jettySize=auto;html=1;" parent="1" source="qNy3HbN_EDeQJ4Fwauo_-54" target="qNy3HbN_EDeQJ4Fwauo_-58" edge="1"><mxGeometry relative="1" as="geometry"/></mxCell><mxCell id="qNy3HbN_EDeQJ4Fwauo_-54" value="Condiciona&lt;div&gt;Userl&lt;/div&gt;" style="ellipse;whiteSpace=wrap;html=1;" parent="1" vertex="1"><mxGeometry x="1670" y="520" width="80" height="80" as="geometry"/></mxCell><mxCell id="qNy3HbN_EDeQJ4Fwauo_-61" value="" style="edgeStyle=orthogonalEdgeStyle;rounded=0;orthogonalLoop=1;jettySize=auto;html=1;" parent="1" source="qNy3HbN_EDeQJ4Fwauo_-56" target="qNy3HbN_EDeQJ4Fwauo_-60" edge="1"><mxGeometry relative="1" as="geometry"/></mxCell><mxCell id="qNy3HbN_EDeQJ4Fwauo_-56" value="Si_Existe" style="ellipse;whiteSpace=wrap;html=1;" parent="1" vertex="1"><mxGeometry x="1560" y="635" width="80" height="80" as="geometry"/></mxCell><mxCell id="qNy3HbN_EDeQJ4Fwauo_-63" value="" style="edgeStyle=orthogonalEdgeStyle;rounded=0;orthogonalLoop=1;jettySize=auto;html=1;" parent="1" source="qNy3HbN_EDeQJ4Fwauo_-58" target="qNy3HbN_EDeQJ4Fwauo_-62" edge="1"><mxGeometry relative="1" as="geometry"/></mxCell><mxCell id="qNy3HbN_EDeQJ4Fwauo_-58" value="No_Existe" style="ellipse;whiteSpace=wrap;html=1;" parent="1" vertex="1"><mxGeometry x="1780" y="635" width="80" height="80" as="geometry"/></mxCell><mxCell id="qNy3HbN_EDeQJ4Fwauo_-65" value="" style="edgeStyle=orthogonalEdgeStyle;rounded=0;orthogonalLoop=1;jettySize=auto;html=1;" parent="1" source="qNy3HbN_EDeQJ4Fwauo_-60" target="qNy3HbN_EDeQJ4Fwauo_-64" edge="1"><mxGeometry relative="1" as="geometry"><Array as="points"><mxPoint x="1600" y="910"/></Array></mxGeometry></mxCell><mxCell id="qNy3HbN_EDeQJ4Fwauo_-60" value="Concerder&lt;div&gt;Servicio&lt;/div&gt;" style="ellipse;whiteSpace=wrap;html=1;" parent="1" vertex="1"><mxGeometry x="1560" y="750" width="80" height="80" as="geometry"/></mxCell><mxCell id="qNy3HbN_EDeQJ4Fwauo_-82" style="edgeStyle=orthogonalEdgeStyle;rounded=0;orthogonalLoop=1;jettySize=auto;html=1;entryX=0.5;entryY=1;entryDx=0;entryDy=0;" parent="1" source="qNy3HbN_EDeQJ4Fwauo_-62" target="qNy3HbN_EDeQJ4Fwauo_-76" edge="1"><mxGeometry relative="1" as="geometry"><Array as="points"><mxPoint x="1920" y="795"/><mxPoint x="1920" y="1450"/><mxPoint x="1710" y="1450"/></Array></mxGeometry></mxCell><mxCell id="qNy3HbN_EDeQJ4Fwauo_-62" value="Error&lt;div&gt;Request&lt;/div&gt;" style="ellipse;whiteSpace=wrap;html=1;" parent="1" vertex="1"><mxGeometry x="1780" y="755" width="80" height="80" as="geometry"/></mxCell><mxCell id="qNy3HbN_EDeQJ4Fwauo_-67" value="" style="edgeStyle=orthogonalEdgeStyle;rounded=0;orthogonalLoop=1;jettySize=auto;html=1;" parent="1" source="qNy3HbN_EDeQJ4Fwauo_-64" target="qNy3HbN_EDeQJ4Fwauo_-66" edge="1"><mxGeometry relative="1" as="geometry"><Array as="points"><mxPoint x="1710" y="960"/><mxPoint x="1610" y="960"/></Array></mxGeometry></mxCell><mxCell id="qNy3HbN_EDeQJ4Fwauo_-69" value="" style="edgeStyle=orthogonalEdgeStyle;rounded=0;orthogonalLoop=1;jettySize=auto;html=1;" parent="1" source="qNy3HbN_EDeQJ4Fwauo_-64" target="qNy3HbN_EDeQJ4Fwauo_-68" edge="1"><mxGeometry relative="1" as="geometry"><Array as="points"><mxPoint x="1710" y="960"/><mxPoint x="1810" y="960"/></Array></mxGeometry></mxCell><mxCell id="qNy3HbN_EDeQJ4Fwauo_-64" value="Condicional&lt;div&gt;User&lt;/div&gt;&lt;div&gt;Controller&lt;/div&gt;" style="ellipse;whiteSpace=wrap;html=1;" parent="1" vertex="1"><mxGeometry x="1670" y="870" width="80" height="80" as="geometry"/></mxCell><mxCell id="qNy3HbN_EDeQJ4Fwauo_-71" value="" style="edgeStyle=orthogonalEdgeStyle;rounded=0;orthogonalLoop=1;jettySize=auto;html=1;" parent="1" source="qNy3HbN_EDeQJ4Fwauo_-66" target="qNy3HbN_EDeQJ4Fwauo_-70" edge="1"><mxGeometry relative="1" as="geometry"/></mxCell><mxCell id="qNy3HbN_EDeQJ4Fwauo_-66" value="Si_Existe" style="ellipse;whiteSpace=wrap;html=1;" parent="1" vertex="1"><mxGeometry x="1570" y="990" width="80" height="80" as="geometry"/></mxCell><mxCell id="qNy3HbN_EDeQJ4Fwauo_-80" value="" style="edgeStyle=orthogonalEdgeStyle;rounded=0;orthogonalLoop=1;jettySize=auto;html=1;" parent="1" source="qNy3HbN_EDeQJ4Fwauo_-68" target="qNy3HbN_EDeQJ4Fwauo_-79" edge="1"><mxGeometry relative="1" as="geometry"><Array as="points"><mxPoint x="1810" y="1100"/><mxPoint x="1810" y="1100"/></Array></mxGeometry></mxCell><mxCell id="qNy3HbN_EDeQJ4Fwauo_-68" value="No_Existe" style="ellipse;whiteSpace=wrap;html=1;" parent="1" vertex="1"><mxGeometry x="1770" y="990" width="80" height="80" as="geometry"/></mxCell><mxCell id="qNy3HbN_EDeQJ4Fwauo_-73" value="" style="edgeStyle=orthogonalEdgeStyle;rounded=0;orthogonalLoop=1;jettySize=auto;html=1;" parent="1" source="qNy3HbN_EDeQJ4Fwauo_-70" target="qNy3HbN_EDeQJ4Fwauo_-72" edge="1"><mxGeometry relative="1" as="geometry"><Array as="points"><mxPoint x="1610" y="1250"/></Array></mxGeometry></mxCell><mxCell id="qNy3HbN_EDeQJ4Fwauo_-70" value="Request&lt;div&gt;Sucesfull&lt;/div&gt;" style="ellipse;whiteSpace=wrap;html=1;" parent="1" vertex="1"><mxGeometry x="1570" y="1110" width="80" height="80" as="geometry"/></mxCell><mxCell id="qNy3HbN_EDeQJ4Fwauo_-77" value="" style="edgeStyle=orthogonalEdgeStyle;rounded=0;orthogonalLoop=1;jettySize=auto;html=1;" parent="1" source="qNy3HbN_EDeQJ4Fwauo_-72" target="qNy3HbN_EDeQJ4Fwauo_-76" edge="1"><mxGeometry relative="1" as="geometry"/></mxCell><mxCell id="qNy3HbN_EDeQJ4Fwauo_-72" value="Asignacion&lt;div&gt;Log&lt;/div&gt;" style="ellipse;whiteSpace=wrap;html=1;" parent="1" vertex="1"><mxGeometry x="1670" y="1210" width="80" height="80" as="geometry"/></mxCell><mxCell id="qNy3HbN_EDeQJ4Fwauo_-76" value="FIN" style="ellipse;whiteSpace=wrap;html=1;" parent="1" vertex="1"><mxGeometry x="1670" y="1350" width="80" height="80" as="geometry"/></mxCell><mxCell id="qNy3HbN_EDeQJ4Fwauo_-81" style="edgeStyle=orthogonalEdgeStyle;rounded=0;orthogonalLoop=1;jettySize=auto;html=1;entryX=1;entryY=0.5;entryDx=0;entryDy=0;" parent="1" source="qNy3HbN_EDeQJ4Fwauo_-79" target="qNy3HbN_EDeQJ4Fwauo_-76" edge="1"><mxGeometry relative="1" as="geometry"><Array as="points"><mxPoint x="1810" y="1390"/></Array></mxGeometry></mxCell><mxCell id="qNy3HbN_EDeQJ4Fwauo_-79" value="Request_Error" style="ellipse;whiteSpace=wrap;html=1;" parent="1" vertex="1"><mxGeometry x="1770" y="1110" width="80" height="80" as="geometry"/></mxCell></root></mxGraphModel></diagram><diagram id="x4maokPuhTRTG_9utZrZ" name="New Book/User"><mxGraphModel dx="2396" dy="1276" grid="0" gridSize="10" guides="1" tooltips="1" connect="1" arrows="1" fold="1" page="0" pageScale="1" pageWidth="850" pageHeight="1100" math="0" shadow="0"><root><mxCell id="0"/><mxCell id="1" parent="0"/><mxCell id="uH591HHBjOjmrH8-YSeK-1" style="edgeStyle=orthogonalEdgeStyle;rounded=0;orthogonalLoop=1;jettySize=auto;html=1;" parent="1" source="uH591HHBjOjmrH8-YSeK-3" edge="1"><mxGeometry relative="1" as="geometry"><mxPoint x="-204" y="81" as="targetPoint"/></mxGeometry></mxCell><mxCell id="uH591HHBjOjmrH8-YSeK-2" value="" style="edgeStyle=orthogonalEdgeStyle;rounded=0;orthogonalLoop=1;jettySize=auto;html=1;" parent="1" source="uH591HHBjOjmrH8-YSeK-3" target="uH591HHBjOjmrH8-YSeK-5" edge="1"><mxGeometry relative="1" as="geometry"/></mxCell><mxCell id="uH591HHBjOjmrH8-YSeK-3" value="Request /Asignación" style="ellipse;whiteSpace=wrap;html=1;aspect=fixed;" parent="1" vertex="1"><mxGeometry x="-244" y="21" width="80" height="80" as="geometry"/></mxCell><mxCell id="uH591HHBjOjmrH8-YSeK-4" value="" style="edgeStyle=orthogonalEdgeStyle;rounded=0;orthogonalLoop=1;jettySize=auto;html=1;" parent="1" source="uH591HHBjOjmrH8-YSeK-5" target="uH591HHBjOjmrH8-YSeK-20" edge="1"><mxGeometry relative="1" as="geometry"/></mxCell><mxCell id="uH591HHBjOjmrH8-YSeK-5" value="Log Ingreso" style="ellipse;whiteSpace=wrap;html=1;aspect=fixed;" parent="1" vertex="1"><mxGeometry x="-243" y="131" width="80" height="80" as="geometry"/></mxCell><mxCell id="uH591HHBjOjmrH8-YSeK-6" value="Condicional&lt;div&gt;respuesta&lt;/div&gt;&lt;div&gt;servicio&lt;/div&gt;" style="ellipse;whiteSpace=wrap;html=1;aspect=fixed;" parent="1" vertex="1"><mxGeometry x="-243" y="351" width="80" height="80" as="geometry"/></mxCell><mxCell id="uH591HHBjOjmrH8-YSeK-7" value="" style="edgeStyle=orthogonalEdgeStyle;rounded=0;orthogonalLoop=1;jettySize=auto;html=1;" parent="1" source="uH591HHBjOjmrH8-YSeK-8" target="uH591HHBjOjmrH8-YSeK-14" edge="1"><mxGeometry relative="1" as="geometry"/></mxCell><mxCell id="uH591HHBjOjmrH8-YSeK-8" value="Existe&lt;div&gt;yes&lt;/div&gt;" style="ellipse;whiteSpace=wrap;html=1;aspect=fixed;" parent="1" vertex="1"><mxGeometry x="-184" y="451" width="80" height="80" as="geometry"/></mxCell><mxCell id="uH591HHBjOjmrH8-YSeK-9" value="" style="endArrow=classic;startArrow=none;html=1;rounded=0;startFill=0;exitX=1;exitY=1;exitDx=0;exitDy=0;" parent="1" source="uH591HHBjOjmrH8-YSeK-6" target="uH591HHBjOjmrH8-YSeK-8" edge="1"><mxGeometry width="50" height="50" relative="1" as="geometry"><mxPoint x="-154" y="381" as="sourcePoint"/><mxPoint x="-134" y="561" as="targetPoint"/></mxGeometry></mxCell><mxCell id="uH591HHBjOjmrH8-YSeK-10" value="" style="edgeStyle=orthogonalEdgeStyle;rounded=0;orthogonalLoop=1;jettySize=auto;html=1;" parent="1" source="uH591HHBjOjmrH8-YSeK-11" target="uH591HHBjOjmrH8-YSeK-23" edge="1"><mxGeometry relative="1" as="geometry"/></mxCell><mxCell id="uH591HHBjOjmrH8-YSeK-11" value="Existe&lt;div&gt;no&lt;/div&gt;" style="ellipse;whiteSpace=wrap;html=1;aspect=fixed;" parent="1" vertex="1"><mxGeometry x="-304" y="451" width="80" height="80" as="geometry"/></mxCell><mxCell id="uH591HHBjOjmrH8-YSeK-12" value="" style="endArrow=classic;html=1;rounded=0;exitX=0;exitY=1;exitDx=0;exitDy=0;" parent="1" source="uH591HHBjOjmrH8-YSeK-6" target="uH591HHBjOjmrH8-YSeK-11" edge="1"><mxGeometry width="50" height="50" relative="1" as="geometry"><mxPoint x="-184" y="441" as="sourcePoint"/><mxPoint x="-134" y="391" as="targetPoint"/></mxGeometry></mxCell><mxCell id="uH591HHBjOjmrH8-YSeK-13" style="edgeStyle=orthogonalEdgeStyle;rounded=0;orthogonalLoop=1;jettySize=auto;html=1;" parent="1" source="uH591HHBjOjmrH8-YSeK-14" target="uH591HHBjOjmrH8-YSeK-16" edge="1"><mxGeometry relative="1" as="geometry"/></mxCell><mxCell id="uH591HHBjOjmrH8-YSeK-14" value="Asignación&lt;div&gt;respuesta&lt;/div&gt;" style="ellipse;whiteSpace=wrap;html=1;aspect=fixed;" parent="1" vertex="1"><mxGeometry x="-74" y="781" width="80" height="80" as="geometry"/></mxCell><mxCell id="uH591HHBjOjmrH8-YSeK-15" style="edgeStyle=orthogonalEdgeStyle;rounded=0;orthogonalLoop=1;jettySize=auto;html=1;" parent="1" source="uH591HHBjOjmrH8-YSeK-16" target="uH591HHBjOjmrH8-YSeK-21" edge="1"><mxGeometry relative="1" as="geometry"><mxPoint x="-34" y="1211" as="targetPoint"/></mxGeometry></mxCell><mxCell id="uH591HHBjOjmrH8-YSeK-16" value="Log Salida" style="ellipse;whiteSpace=wrap;html=1;aspect=fixed;" parent="1" vertex="1"><mxGeometry x="-74" y="1002" width="80" height="80" as="geometry"/></mxCell><mxCell id="uH591HHBjOjmrH8-YSeK-17" style="edgeStyle=orthogonalEdgeStyle;rounded=0;orthogonalLoop=1;jettySize=auto;html=1;" parent="1" source="uH591HHBjOjmrH8-YSeK-18" target="uH591HHBjOjmrH8-YSeK-3" edge="1"><mxGeometry relative="1" as="geometry"/></mxCell><mxCell id="uH591HHBjOjmrH8-YSeK-18" value="INICIO" style="strokeWidth=2;html=1;shape=mxgraph.flowchart.start_2;whiteSpace=wrap;" parent="1" vertex="1"><mxGeometry x="-254" y="-99" width="100" height="100" as="geometry"/></mxCell><mxCell id="uH591HHBjOjmrH8-YSeK-19" style="edgeStyle=orthogonalEdgeStyle;rounded=0;orthogonalLoop=1;jettySize=auto;html=1;" parent="1" source="uH591HHBjOjmrH8-YSeK-20" target="uH591HHBjOjmrH8-YSeK-6" edge="1"><mxGeometry relative="1" as="geometry"/></mxCell><mxCell id="uH591HHBjOjmrH8-YSeK-20" value="Servicio &lt;br&gt;Existe" style="ellipse;whiteSpace=wrap;html=1;aspect=fixed;" parent="1" vertex="1"><mxGeometry x="-243" y="241" width="80" height="80" as="geometry"/></mxCell><mxCell id="uH591HHBjOjmrH8-YSeK-21" value="" style="ellipse;html=1;shape=endState;fillColor=#000000;strokeColor=#ff0000;" parent="1" vertex="1"><mxGeometry x="-66.5" y="1129" width="65" height="60" as="geometry"/></mxCell><mxCell id="uH591HHBjOjmrH8-YSeK-22" style="edgeStyle=orthogonalEdgeStyle;rounded=0;orthogonalLoop=1;jettySize=auto;html=1;" parent="1" source="uH591HHBjOjmrH8-YSeK-23" target="uH591HHBjOjmrH8-YSeK-25" edge="1"><mxGeometry relative="1" as="geometry"/></mxCell><mxCell id="uH591HHBjOjmrH8-YSeK-23" value="Servicio&lt;div&gt;save&lt;/div&gt;" style="ellipse;whiteSpace=wrap;html=1;aspect=fixed;" parent="1" vertex="1"><mxGeometry x="-304" y="561" width="80" height="80" as="geometry"/></mxCell><mxCell id="uH591HHBjOjmrH8-YSeK-24" style="edgeStyle=orthogonalEdgeStyle;rounded=0;orthogonalLoop=1;jettySize=auto;html=1;" parent="1" source="uH591HHBjOjmrH8-YSeK-25" target="uH591HHBjOjmrH8-YSeK-23" edge="1"><mxGeometry relative="1" as="geometry"/></mxCell><mxCell id="uH591HHBjOjmrH8-YSeK-25" value="Condicional&lt;div&gt;respuesta&lt;/div&gt;&lt;div&gt;servicio&lt;br&gt;save&lt;/div&gt;" style="ellipse;whiteSpace=wrap;html=1;aspect=fixed;" parent="1" vertex="1"><mxGeometry x="-304" y="671" width="80" height="80" as="geometry"/></mxCell><mxCell id="uH591HHBjOjmrH8-YSeK-26" style="edgeStyle=orthogonalEdgeStyle;rounded=0;orthogonalLoop=1;jettySize=auto;html=1;" parent="1" source="uH591HHBjOjmrH8-YSeK-27" target="uH591HHBjOjmrH8-YSeK-14" edge="1"><mxGeometry relative="1" as="geometry"/></mxCell><mxCell id="uH591HHBjOjmrH8-YSeK-27" value="if" style="ellipse;whiteSpace=wrap;html=1;aspect=fixed;" parent="1" vertex="1"><mxGeometry x="-224" y="781" width="80" height="80" as="geometry"/></mxCell><mxCell id="uH591HHBjOjmrH8-YSeK-28" value="" style="endArrow=classic;startArrow=none;html=1;rounded=0;startFill=0;exitX=1;exitY=1;exitDx=0;exitDy=0;" parent="1" source="uH591HHBjOjmrH8-YSeK-25" target="uH591HHBjOjmrH8-YSeK-27" edge="1"><mxGeometry width="50" height="50" relative="1" as="geometry"><mxPoint x="-234" y="711" as="sourcePoint"/><mxPoint x="-214" y="891" as="targetPoint"/></mxGeometry></mxCell><mxCell id="uH591HHBjOjmrH8-YSeK-29" value="" style="edgeStyle=orthogonalEdgeStyle;rounded=0;orthogonalLoop=1;jettySize=auto;html=1;" parent="1" source="uH591HHBjOjmrH8-YSeK-30" target="uH591HHBjOjmrH8-YSeK-32" edge="1"><mxGeometry relative="1" as="geometry"/></mxCell><mxCell id="uH591HHBjOjmrH8-YSeK-30" value="else" style="ellipse;whiteSpace=wrap;html=1;aspect=fixed;" parent="1" vertex="1"><mxGeometry x="-354" y="761" width="80" height="80" as="geometry"/></mxCell><mxCell id="uH591HHBjOjmrH8-YSeK-31" value="" style="edgeStyle=orthogonalEdgeStyle;rounded=0;orthogonalLoop=1;jettySize=auto;html=1;" parent="1" source="uH591HHBjOjmrH8-YSeK-32" target="uH591HHBjOjmrH8-YSeK-34" edge="1"><mxGeometry relative="1" as="geometry"/></mxCell><mxCell id="uH591HHBjOjmrH8-YSeK-32" value="Asignación Respuesta&lt;div&gt;log&lt;/div&gt;" style="ellipse;whiteSpace=wrap;html=1;aspect=fixed;" parent="1" vertex="1"><mxGeometry x="-354" y="875" width="80" height="80" as="geometry"/></mxCell><mxCell id="uH591HHBjOjmrH8-YSeK-33" style="edgeStyle=orthogonalEdgeStyle;rounded=0;orthogonalLoop=1;jettySize=auto;html=1;" parent="1" source="uH591HHBjOjmrH8-YSeK-34" target="uH591HHBjOjmrH8-YSeK-16" edge="1"><mxGeometry relative="1" as="geometry"/></mxCell><mxCell id="uH591HHBjOjmrH8-YSeK-34" value="Log&amp;nbsp; error" style="ellipse;whiteSpace=wrap;html=1;aspect=fixed;" parent="1" vertex="1"><mxGeometry x="-354" y="1002" width="80" height="80" as="geometry"/></mxCell><mxCell id="uH591HHBjOjmrH8-YSeK-35" value="" style="endArrow=classic;html=1;rounded=0;" parent="1" source="uH591HHBjOjmrH8-YSeK-25" target="uH591HHBjOjmrH8-YSeK-30" edge="1"><mxGeometry width="50" height="50" relative="1" as="geometry"><mxPoint x="-302" y="799" as="sourcePoint"/><mxPoint x="-330" y="838" as="targetPoint"/></mxGeometry></mxCell><mxCell id="EXyDi3OsCoM8aWOe3NZ--97" style="edgeStyle=orthogonalEdgeStyle;rounded=0;orthogonalLoop=1;jettySize=auto;html=1;" parent="1" edge="1"><mxGeometry relative="1" as="geometry"><mxPoint x="-4" y="871" as="targetPoint"/><mxPoint x="-9.999999999999773" y="871.0588235294117" as="sourcePoint"/></mxGeometry></mxCell><mxCell id="wR3eQ_GsEskktiAwKdnj-1" value="" style="edgeStyle=orthogonalEdgeStyle;rounded=0;orthogonalLoop=1;jettySize=auto;html=1;" edge="1" parent="1" source="wR3eQ_GsEskktiAwKdnj-3" target="wR3eQ_GsEskktiAwKdnj-5"><mxGeometry relative="1" as="geometry"/></mxCell><mxCell id="wR3eQ_GsEskktiAwKdnj-2" value="" style="edgeStyle=orthogonalEdgeStyle;rounded=0;orthogonalLoop=1;jettySize=auto;html=1;" edge="1" parent="1" source="wR3eQ_GsEskktiAwKdnj-3"><mxGeometry relative="1" as="geometry"><mxPoint x="420" y="10" as="targetPoint"/></mxGeometry></mxCell><mxCell id="wR3eQ_GsEskktiAwKdnj-3" value="Request_Asignacion" style="rounded=1;whiteSpace=wrap;html=1;" vertex="1" parent="1"><mxGeometry x="360" y="50" width="120" height="40" as="geometry"/></mxCell><mxCell id="wR3eQ_GsEskktiAwKdnj-4" value="" style="edgeStyle=orthogonalEdgeStyle;rounded=0;orthogonalLoop=1;jettySize=auto;html=1;" edge="1" parent="1" source="wR3eQ_GsEskktiAwKdnj-5" target="wR3eQ_GsEskktiAwKdnj-7"><mxGeometry relative="1" as="geometry"/></mxCell><mxCell id="wR3eQ_GsEskktiAwKdnj-5" value="Log_Ingreso" style="whiteSpace=wrap;html=1;rounded=1;" vertex="1" parent="1"><mxGeometry x="360" y="120" width="120" height="30" as="geometry"/></mxCell><mxCell id="wR3eQ_GsEskktiAwKdnj-6" value="" style="edgeStyle=orthogonalEdgeStyle;rounded=0;orthogonalLoop=1;jettySize=auto;html=1;" edge="1" parent="1" source="wR3eQ_GsEskktiAwKdnj-7"><mxGeometry relative="1" as="geometry"><mxPoint x="420" y="240" as="targetPoint"/></mxGeometry></mxCell><mxCell id="wR3eQ_GsEskktiAwKdnj-7" value="Servicio" style="whiteSpace=wrap;html=1;rounded=1;" vertex="1" parent="1"><mxGeometry x="360" y="180" width="120" height="30" as="geometry"/></mxCell><mxCell id="wR3eQ_GsEskktiAwKdnj-8" style="edgeStyle=orthogonalEdgeStyle;rounded=0;orthogonalLoop=1;jettySize=auto;html=1;" edge="1" parent="1" source="wR3eQ_GsEskktiAwKdnj-9"><mxGeometry relative="1" as="geometry"><mxPoint x="280" y="460" as="targetPoint"/></mxGeometry></mxCell><mxCell id="wR3eQ_GsEskktiAwKdnj-9" value="User_NoExiste" style="rounded=0;whiteSpace=wrap;html=1;" vertex="1" parent="1"><mxGeometry x="220" y="360" width="120" height="60" as="geometry"/></mxCell><mxCell id="wR3eQ_GsEskktiAwKdnj-10" style="edgeStyle=orthogonalEdgeStyle;rounded=0;orthogonalLoop=1;jettySize=auto;html=1;entryX=1;entryY=0.5;entryDx=0;entryDy=0;" edge="1" parent="1" source="wR3eQ_GsEskktiAwKdnj-11" target="wR3eQ_GsEskktiAwKdnj-33"><mxGeometry relative="1" as="geometry"/></mxCell><mxCell id="wR3eQ_GsEskktiAwKdnj-11" value="User_Existe" style="rounded=0;whiteSpace=wrap;html=1;" vertex="1" parent="1"><mxGeometry x="500" y="350" width="120" height="60" as="geometry"/></mxCell><mxCell id="wR3eQ_GsEskktiAwKdnj-12" value="" style="edgeStyle=orthogonalEdgeStyle;rounded=0;orthogonalLoop=1;jettySize=auto;html=1;" edge="1" parent="1" source="wR3eQ_GsEskktiAwKdnj-13"><mxGeometry relative="1" as="geometry"><mxPoint x="280" y="560" as="targetPoint"/></mxGeometry></mxCell><mxCell id="wR3eQ_GsEskktiAwKdnj-13" value="Servicio_Save" style="rounded=0;whiteSpace=wrap;html=1;" vertex="1" parent="1"><mxGeometry x="220" y="460" width="120" height="60" as="geometry"/></mxCell><mxCell id="wR3eQ_GsEskktiAwKdnj-14" style="edgeStyle=orthogonalEdgeStyle;rounded=0;orthogonalLoop=1;jettySize=auto;html=1;entryX=0.5;entryY=0;entryDx=0;entryDy=0;" edge="1" parent="1" source="wR3eQ_GsEskktiAwKdnj-16" target="wR3eQ_GsEskktiAwKdnj-9"><mxGeometry relative="1" as="geometry"/></mxCell><mxCell id="wR3eQ_GsEskktiAwKdnj-15" style="edgeStyle=orthogonalEdgeStyle;rounded=0;orthogonalLoop=1;jettySize=auto;html=1;" edge="1" parent="1" source="wR3eQ_GsEskktiAwKdnj-16" target="wR3eQ_GsEskktiAwKdnj-11"><mxGeometry relative="1" as="geometry"/></mxCell><mxCell id="wR3eQ_GsEskktiAwKdnj-16" value="Condicional&lt;div&gt;Respuesta&lt;/div&gt;&lt;div&gt;Servico&lt;/div&gt;" style="rhombus;whiteSpace=wrap;html=1;" vertex="1" parent="1"><mxGeometry x="370" y="240" width="100" height="100" as="geometry"/></mxCell><mxCell id="wR3eQ_GsEskktiAwKdnj-17" value="" style="edgeStyle=orthogonalEdgeStyle;rounded=0;orthogonalLoop=1;jettySize=auto;html=1;" edge="1" parent="1" source="wR3eQ_GsEskktiAwKdnj-19" target="wR3eQ_GsEskktiAwKdnj-21"><mxGeometry relative="1" as="geometry"/></mxCell><mxCell id="wR3eQ_GsEskktiAwKdnj-18" value="" style="edgeStyle=orthogonalEdgeStyle;rounded=0;orthogonalLoop=1;jettySize=auto;html=1;" edge="1" parent="1" source="wR3eQ_GsEskktiAwKdnj-19" target="wR3eQ_GsEskktiAwKdnj-23"><mxGeometry relative="1" as="geometry"/></mxCell><mxCell id="wR3eQ_GsEskktiAwKdnj-19" value="Condicional&lt;div&gt;Respuesta&lt;/div&gt;&lt;div&gt;Servico&lt;/div&gt;&lt;div&gt;Save&lt;/div&gt;" style="rhombus;whiteSpace=wrap;html=1;" vertex="1" parent="1"><mxGeometry x="220" y="560" width="120" height="120" as="geometry"/></mxCell><mxCell id="wR3eQ_GsEskktiAwKdnj-20" style="edgeStyle=orthogonalEdgeStyle;rounded=0;orthogonalLoop=1;jettySize=auto;html=1;entryX=0.5;entryY=0;entryDx=0;entryDy=0;" edge="1" parent="1" source="wR3eQ_GsEskktiAwKdnj-21" target="wR3eQ_GsEskktiAwKdnj-25"><mxGeometry relative="1" as="geometry"/></mxCell><mxCell id="wR3eQ_GsEskktiAwKdnj-21" value="Else" style="whiteSpace=wrap;html=1;" vertex="1" parent="1"><mxGeometry x="90" y="690" width="120" height="40" as="geometry"/></mxCell><mxCell id="wR3eQ_GsEskktiAwKdnj-22" style="edgeStyle=orthogonalEdgeStyle;rounded=0;orthogonalLoop=1;jettySize=auto;html=1;" edge="1" parent="1" source="wR3eQ_GsEskktiAwKdnj-23"><mxGeometry relative="1" as="geometry"><mxPoint x="430" y="780" as="targetPoint"/></mxGeometry></mxCell><mxCell id="wR3eQ_GsEskktiAwKdnj-23" value="If" style="whiteSpace=wrap;html=1;" vertex="1" parent="1"><mxGeometry x="370" y="690" width="120" height="40" as="geometry"/></mxCell><mxCell id="wR3eQ_GsEskktiAwKdnj-24" style="edgeStyle=orthogonalEdgeStyle;rounded=0;orthogonalLoop=1;jettySize=auto;html=1;" edge="1" parent="1" source="wR3eQ_GsEskktiAwKdnj-25"><mxGeometry relative="1" as="geometry"><mxPoint x="150" y="860" as="targetPoint"/></mxGeometry></mxCell><mxCell id="wR3eQ_GsEskktiAwKdnj-25" value="Asignacion Repuesta&lt;div&gt;Log&lt;/div&gt;" style="rounded=1;whiteSpace=wrap;html=1;" vertex="1" parent="1"><mxGeometry x="90" y="770" width="120" height="40" as="geometry"/></mxCell><mxCell id="wR3eQ_GsEskktiAwKdnj-26" style="edgeStyle=orthogonalEdgeStyle;rounded=0;orthogonalLoop=1;jettySize=auto;html=1;" edge="1" parent="1" source="wR3eQ_GsEskktiAwKdnj-27"><mxGeometry relative="1" as="geometry"><mxPoint x="260" y="880" as="targetPoint"/></mxGeometry></mxCell><mxCell id="wR3eQ_GsEskktiAwKdnj-27" value="Log_Error" style="rounded=1;whiteSpace=wrap;html=1;" vertex="1" parent="1"><mxGeometry x="90" y="860" width="120" height="40" as="geometry"/></mxCell><mxCell id="wR3eQ_GsEskktiAwKdnj-28" value="" style="edgeStyle=orthogonalEdgeStyle;rounded=0;orthogonalLoop=1;jettySize=auto;html=1;" edge="1" parent="1" source="wR3eQ_GsEskktiAwKdnj-29" target="wR3eQ_GsEskktiAwKdnj-31"><mxGeometry relative="1" as="geometry"/></mxCell><mxCell id="wR3eQ_GsEskktiAwKdnj-29" value="Log_Servico" style="rounded=1;whiteSpace=wrap;html=1;" vertex="1" parent="1"><mxGeometry x="260" y="860" width="120" height="40" as="geometry"/></mxCell><mxCell id="wR3eQ_GsEskktiAwKdnj-30" style="edgeStyle=orthogonalEdgeStyle;rounded=0;orthogonalLoop=1;jettySize=auto;html=1;" edge="1" parent="1" source="wR3eQ_GsEskktiAwKdnj-31"><mxGeometry relative="1" as="geometry"><mxPoint x="320" y="1040" as="targetPoint"/></mxGeometry></mxCell><mxCell id="wR3eQ_GsEskktiAwKdnj-31" value="Return" style="whiteSpace=wrap;html=1;rounded=1;" vertex="1" parent="1"><mxGeometry x="260" y="960" width="120" height="30" as="geometry"/></mxCell><mxCell id="wR3eQ_GsEskktiAwKdnj-32" style="edgeStyle=orthogonalEdgeStyle;rounded=0;orthogonalLoop=1;jettySize=auto;html=1;entryX=1;entryY=0.5;entryDx=0;entryDy=0;" edge="1" parent="1" source="wR3eQ_GsEskktiAwKdnj-33" target="wR3eQ_GsEskktiAwKdnj-29"><mxGeometry relative="1" as="geometry"/></mxCell><mxCell id="wR3eQ_GsEskktiAwKdnj-33" value="Asignacion_Respuesta" style="rounded=1;whiteSpace=wrap;html=1;" vertex="1" parent="1"><mxGeometry x="370" y="780" width="130" height="30" as="geometry"/></mxCell><mxCell id="wR3eQ_GsEskktiAwKdnj-34" value="INICIO" style="ellipse;whiteSpace=wrap;html=1;" vertex="1" parent="1"><mxGeometry x="360" y="-70" width="120" height="80" as="geometry"/></mxCell><mxCell id="wR3eQ_GsEskktiAwKdnj-35" value="FIN" style="ellipse;whiteSpace=wrap;html=1;" vertex="1" parent="1"><mxGeometry x="260" y="1040" width="120" height="80" as="geometry"/></mxCell></root></mxGraphModel></diagram><diagram id="zuEPJbZTeEqF2GdkmXgj" name="Update Book/User"><mxGraphModel dx="1856" dy="915" grid="0" gridSize="10" guides="1" tooltips="1" connect="1" arrows="1" fold="1" page="0" pageScale="1" pageWidth="850" pageHeight="1100" math="0" shadow="0"><root><mxCell id="0"/><mxCell id="1" parent="0"/><mxCell id="weVxuEJ_ID8W_Gm-LsHQ-1" style="edgeStyle=orthogonalEdgeStyle;rounded=0;orthogonalLoop=1;jettySize=auto;html=1;" parent="1" source="weVxuEJ_ID8W_Gm-LsHQ-3" edge="1"><mxGeometry relative="1" as="geometry"><mxPoint x="-204" y="81" as="targetPoint"/></mxGeometry></mxCell><mxCell id="weVxuEJ_ID8W_Gm-LsHQ-2" value="" style="edgeStyle=orthogonalEdgeStyle;rounded=0;orthogonalLoop=1;jettySize=auto;html=1;" parent="1" source="weVxuEJ_ID8W_Gm-LsHQ-3" target="weVxuEJ_ID8W_Gm-LsHQ-5" edge="1"><mxGeometry relative="1" as="geometry"/></mxCell><mxCell id="weVxuEJ_ID8W_Gm-LsHQ-3" value="Request /Asignación" style="ellipse;whiteSpace=wrap;html=1;aspect=fixed;" parent="1" vertex="1"><mxGeometry x="-244" y="21" width="80" height="80" as="geometry"/></mxCell><mxCell id="weVxuEJ_ID8W_Gm-LsHQ-4" value="" style="edgeStyle=orthogonalEdgeStyle;rounded=0;orthogonalLoop=1;jettySize=auto;html=1;" parent="1" source="weVxuEJ_ID8W_Gm-LsHQ-5" target="weVxuEJ_ID8W_Gm-LsHQ-20" edge="1"><mxGeometry relative="1" as="geometry"/></mxCell><mxCell id="weVxuEJ_ID8W_Gm-LsHQ-5" value="Log Ingreso" style="ellipse;whiteSpace=wrap;html=1;aspect=fixed;" parent="1" vertex="1"><mxGeometry x="-243" y="131" width="80" height="80" as="geometry"/></mxCell><mxCell id="weVxuEJ_ID8W_Gm-LsHQ-6" value="Condicional&lt;div&gt;respuesta&lt;/div&gt;&lt;div&gt;servicio&lt;/div&gt;" style="ellipse;whiteSpace=wrap;html=1;aspect=fixed;" parent="1" vertex="1"><mxGeometry x="-243" y="351" width="80" height="80" as="geometry"/></mxCell><mxCell id="weVxuEJ_ID8W_Gm-LsHQ-7" value="" style="edgeStyle=orthogonalEdgeStyle;rounded=0;orthogonalLoop=1;jettySize=auto;html=1;" parent="1" source="weVxuEJ_ID8W_Gm-LsHQ-8" target="weVxuEJ_ID8W_Gm-LsHQ-14" edge="1"><mxGeometry relative="1" as="geometry"/></mxCell><mxCell id="weVxuEJ_ID8W_Gm-LsHQ-8" value="&lt;div&gt;Repsonse&amp;nbsp; OK&lt;br&gt;&lt;/div&gt;" style="ellipse;whiteSpace=wrap;html=1;aspect=fixed;" parent="1" vertex="1"><mxGeometry x="-184" y="451" width="80" height="80" as="geometry"/></mxCell><mxCell id="weVxuEJ_ID8W_Gm-LsHQ-9" value="" style="endArrow=classic;startArrow=none;html=1;rounded=0;startFill=0;exitX=1;exitY=1;exitDx=0;exitDy=0;" parent="1" source="weVxuEJ_ID8W_Gm-LsHQ-6" target="weVxuEJ_ID8W_Gm-LsHQ-8" edge="1"><mxGeometry width="50" height="50" relative="1" as="geometry"><mxPoint x="-154" y="381" as="sourcePoint"/><mxPoint x="-134" y="561" as="targetPoint"/></mxGeometry></mxCell><mxCell id="weVxuEJ_ID8W_Gm-LsHQ-10" value="" style="edgeStyle=orthogonalEdgeStyle;rounded=0;orthogonalLoop=1;jettySize=auto;html=1;" parent="1" source="weVxuEJ_ID8W_Gm-LsHQ-11" target="weVxuEJ_ID8W_Gm-LsHQ-23" edge="1"><mxGeometry relative="1" as="geometry"/></mxCell><mxCell id="weVxuEJ_ID8W_Gm-LsHQ-11" value="Repsonse NOK" style="ellipse;whiteSpace=wrap;html=1;aspect=fixed;" parent="1" vertex="1"><mxGeometry x="-304" y="451" width="80" height="80" as="geometry"/></mxCell><mxCell id="weVxuEJ_ID8W_Gm-LsHQ-12" value="" style="endArrow=classic;html=1;rounded=0;exitX=0;exitY=1;exitDx=0;exitDy=0;" parent="1" source="weVxuEJ_ID8W_Gm-LsHQ-6" target="weVxuEJ_ID8W_Gm-LsHQ-11" edge="1"><mxGeometry width="50" height="50" relative="1" as="geometry"><mxPoint x="-184" y="441" as="sourcePoint"/><mxPoint x="-134" y="391" as="targetPoint"/></mxGeometry></mxCell><mxCell id="weVxuEJ_ID8W_Gm-LsHQ-13" style="edgeStyle=orthogonalEdgeStyle;rounded=0;orthogonalLoop=1;jettySize=auto;html=1;" parent="1" source="weVxuEJ_ID8W_Gm-LsHQ-14" target="weVxuEJ_ID8W_Gm-LsHQ-16" edge="1"><mxGeometry relative="1" as="geometry"/></mxCell><mxCell id="weVxuEJ_ID8W_Gm-LsHQ-14" value="Asignación&lt;div&gt;respuesta&lt;br&gt;OK&lt;/div&gt;" style="ellipse;whiteSpace=wrap;html=1;aspect=fixed;" parent="1" vertex="1"><mxGeometry x="-184" y="561" width="80" height="80" as="geometry"/></mxCell><mxCell id="eipq8M_07yT9bZ91YpT6-3" value="" style="edgeStyle=orthogonalEdgeStyle;rounded=0;orthogonalLoop=1;jettySize=auto;html=1;" parent="1" source="weVxuEJ_ID8W_Gm-LsHQ-16" target="eipq8M_07yT9bZ91YpT6-2" edge="1"><mxGeometry relative="1" as="geometry"/></mxCell><mxCell id="weVxuEJ_ID8W_Gm-LsHQ-16" value="Log Salida" style="ellipse;whiteSpace=wrap;html=1;aspect=fixed;" parent="1" vertex="1"><mxGeometry x="-184" y="671" width="80" height="80" as="geometry"/></mxCell><mxCell id="weVxuEJ_ID8W_Gm-LsHQ-17" style="edgeStyle=orthogonalEdgeStyle;rounded=0;orthogonalLoop=1;jettySize=auto;html=1;" parent="1" source="weVxuEJ_ID8W_Gm-LsHQ-18" target="weVxuEJ_ID8W_Gm-LsHQ-3" edge="1"><mxGeometry relative="1" as="geometry"/></mxCell><mxCell id="weVxuEJ_ID8W_Gm-LsHQ-18" value="INICIO" style="strokeWidth=2;html=1;shape=mxgraph.flowchart.start_2;whiteSpace=wrap;" parent="1" vertex="1"><mxGeometry x="-254" y="-99" width="100" height="100" as="geometry"/></mxCell><mxCell id="weVxuEJ_ID8W_Gm-LsHQ-19" style="edgeStyle=orthogonalEdgeStyle;rounded=0;orthogonalLoop=1;jettySize=auto;html=1;" parent="1" source="weVxuEJ_ID8W_Gm-LsHQ-20" target="weVxuEJ_ID8W_Gm-LsHQ-6" edge="1"><mxGeometry relative="1" as="geometry"/></mxCell><mxCell id="weVxuEJ_ID8W_Gm-LsHQ-20" value="Servicio &lt;br&gt;Update" style="ellipse;whiteSpace=wrap;html=1;aspect=fixed;" parent="1" vertex="1"><mxGeometry x="-243" y="241" width="80" height="80" as="geometry"/></mxCell><mxCell id="weVxuEJ_ID8W_Gm-LsHQ-21" value="" style="ellipse;html=1;shape=endState;fillColor=#000000;strokeColor=#ff0000;" parent="1" vertex="1"><mxGeometry x="-296.5" y="813" width="65" height="60" as="geometry"/></mxCell><mxCell id="weVxuEJ_ID8W_Gm-LsHQ-22" style="edgeStyle=orthogonalEdgeStyle;rounded=0;orthogonalLoop=1;jettySize=auto;html=1;" parent="1" source="weVxuEJ_ID8W_Gm-LsHQ-23" target="weVxuEJ_ID8W_Gm-LsHQ-25" edge="1"><mxGeometry relative="1" as="geometry"/></mxCell><mxCell id="weVxuEJ_ID8W_Gm-LsHQ-23" value="Asignación&lt;div&gt;respuesta&lt;br&gt;NOK&lt;/div&gt;" style="ellipse;whiteSpace=wrap;html=1;aspect=fixed;" parent="1" vertex="1"><mxGeometry x="-304" y="561" width="80" height="80" as="geometry"/></mxCell><mxCell id="eipq8M_07yT9bZ91YpT6-7" style="edgeStyle=orthogonalEdgeStyle;rounded=0;orthogonalLoop=1;jettySize=auto;html=1;" parent="1" source="weVxuEJ_ID8W_Gm-LsHQ-25" target="weVxuEJ_ID8W_Gm-LsHQ-16" edge="1"><mxGeometry relative="1" as="geometry"/></mxCell><mxCell id="weVxuEJ_ID8W_Gm-LsHQ-25" value="Log Error" style="ellipse;whiteSpace=wrap;html=1;aspect=fixed;" parent="1" vertex="1"><mxGeometry x="-304" y="671" width="80" height="80" as="geometry"/></mxCell><mxCell id="weVxuEJ_ID8W_Gm-LsHQ-37" value="" style="edgeStyle=orthogonalEdgeStyle;rounded=0;orthogonalLoop=1;jettySize=auto;html=1;" parent="1" source="weVxuEJ_ID8W_Gm-LsHQ-39" target="weVxuEJ_ID8W_Gm-LsHQ-41" edge="1"><mxGeometry relative="1" as="geometry"/></mxCell><mxCell id="weVxuEJ_ID8W_Gm-LsHQ-38" value="" style="edgeStyle=orthogonalEdgeStyle;rounded=0;orthogonalLoop=1;jettySize=auto;html=1;" parent="1" source="weVxuEJ_ID8W_Gm-LsHQ-39" edge="1"><mxGeometry relative="1" as="geometry"><mxPoint x="420" y="10" as="targetPoint"/></mxGeometry></mxCell><mxCell id="weVxuEJ_ID8W_Gm-LsHQ-39" value="Request_Asignacion" style="rounded=1;whiteSpace=wrap;html=1;" parent="1" vertex="1"><mxGeometry x="360" y="50" width="120" height="40" as="geometry"/></mxCell><mxCell id="weVxuEJ_ID8W_Gm-LsHQ-40" value="" style="edgeStyle=orthogonalEdgeStyle;rounded=0;orthogonalLoop=1;jettySize=auto;html=1;" parent="1" source="weVxuEJ_ID8W_Gm-LsHQ-41" target="weVxuEJ_ID8W_Gm-LsHQ-43" edge="1"><mxGeometry relative="1" as="geometry"/></mxCell><mxCell id="weVxuEJ_ID8W_Gm-LsHQ-41" value="Log_Ingreso" style="whiteSpace=wrap;html=1;rounded=1;" parent="1" vertex="1"><mxGeometry x="360" y="120" width="120" height="30" as="geometry"/></mxCell><mxCell id="weVxuEJ_ID8W_Gm-LsHQ-42" value="" style="edgeStyle=orthogonalEdgeStyle;rounded=0;orthogonalLoop=1;jettySize=auto;html=1;" parent="1" source="weVxuEJ_ID8W_Gm-LsHQ-43" edge="1"><mxGeometry relative="1" as="geometry"><mxPoint x="420" y="240" as="targetPoint"/></mxGeometry></mxCell><mxCell id="weVxuEJ_ID8W_Gm-LsHQ-43" value="Servicio&lt;br&gt;Update" style="whiteSpace=wrap;html=1;rounded=1;" parent="1" vertex="1"><mxGeometry x="360" y="180" width="120" height="30" as="geometry"/></mxCell><mxCell id="hYFSbxmAjh6tLLgOyijJ-3" style="edgeStyle=orthogonalEdgeStyle;rounded=0;orthogonalLoop=1;jettySize=auto;html=1;" edge="1" parent="1" source="weVxuEJ_ID8W_Gm-LsHQ-45" target="hYFSbxmAjh6tLLgOyijJ-2"><mxGeometry relative="1" as="geometry"/></mxCell><mxCell id="weVxuEJ_ID8W_Gm-LsHQ-45" value="Repsonse NOK" style="rounded=0;whiteSpace=wrap;html=1;" parent="1" vertex="1"><mxGeometry x="236" y="340" width="120" height="60" as="geometry"/></mxCell><mxCell id="hYFSbxmAjh6tLLgOyijJ-1" style="edgeStyle=orthogonalEdgeStyle;rounded=0;orthogonalLoop=1;jettySize=auto;html=1;" edge="1" parent="1" source="weVxuEJ_ID8W_Gm-LsHQ-47" target="weVxuEJ_ID8W_Gm-LsHQ-69"><mxGeometry relative="1" as="geometry"/></mxCell><mxCell id="weVxuEJ_ID8W_Gm-LsHQ-47" value="Repsonse&amp;nbsp; OK" style="rounded=0;whiteSpace=wrap;html=1;" parent="1" vertex="1"><mxGeometry x="484" y="345" width="120" height="60" as="geometry"/></mxCell><mxCell id="weVxuEJ_ID8W_Gm-LsHQ-50" style="edgeStyle=orthogonalEdgeStyle;rounded=0;orthogonalLoop=1;jettySize=auto;html=1;entryX=0.5;entryY=0;entryDx=0;entryDy=0;" parent="1" source="weVxuEJ_ID8W_Gm-LsHQ-52" target="weVxuEJ_ID8W_Gm-LsHQ-45" edge="1"><mxGeometry relative="1" as="geometry"/></mxCell><mxCell id="hYFSbxmAjh6tLLgOyijJ-5" style="edgeStyle=orthogonalEdgeStyle;rounded=0;orthogonalLoop=1;jettySize=auto;html=1;" edge="1" parent="1" source="weVxuEJ_ID8W_Gm-LsHQ-52" target="weVxuEJ_ID8W_Gm-LsHQ-47"><mxGeometry relative="1" as="geometry"/></mxCell><mxCell id="weVxuEJ_ID8W_Gm-LsHQ-52" value="Condicional&lt;div&gt;Respuesta&lt;/div&gt;&lt;div&gt;Servico&lt;/div&gt;" style="rhombus;whiteSpace=wrap;html=1;" parent="1" vertex="1"><mxGeometry x="370" y="240" width="100" height="100" as="geometry"/></mxCell><mxCell id="hYFSbxmAjh6tLLgOyijJ-9" value="" style="edgeStyle=orthogonalEdgeStyle;rounded=0;orthogonalLoop=1;jettySize=auto;html=1;" edge="1" parent="1" source="weVxuEJ_ID8W_Gm-LsHQ-69" target="hYFSbxmAjh6tLLgOyijJ-8"><mxGeometry relative="1" as="geometry"/></mxCell><mxCell id="weVxuEJ_ID8W_Gm-LsHQ-69" value="Asignación&lt;div&gt;respuesta&lt;br&gt;OK&lt;/div&gt;" style="rounded=1;whiteSpace=wrap;html=1;" parent="1" vertex="1"><mxGeometry x="480" y="446" width="128" height="55" as="geometry"/></mxCell><mxCell id="weVxuEJ_ID8W_Gm-LsHQ-70" value="INICIO" style="ellipse;whiteSpace=wrap;html=1;" parent="1" vertex="1"><mxGeometry x="360" y="-70" width="120" height="80" as="geometry"/></mxCell><mxCell id="eipq8M_07yT9bZ91YpT6-6" style="edgeStyle=orthogonalEdgeStyle;rounded=0;orthogonalLoop=1;jettySize=auto;html=1;" parent="1" source="eipq8M_07yT9bZ91YpT6-2" target="weVxuEJ_ID8W_Gm-LsHQ-21" edge="1"><mxGeometry relative="1" as="geometry"/></mxCell><mxCell id="eipq8M_07yT9bZ91YpT6-2" value="Return Response" style="ellipse;whiteSpace=wrap;html=1;aspect=fixed;" parent="1" vertex="1"><mxGeometry x="-184" y="803" width="80" height="80" as="geometry"/></mxCell><mxCell id="hYFSbxmAjh6tLLgOyijJ-7" value="" style="edgeStyle=orthogonalEdgeStyle;rounded=0;orthogonalLoop=1;jettySize=auto;html=1;" edge="1" parent="1" source="hYFSbxmAjh6tLLgOyijJ-2" target="hYFSbxmAjh6tLLgOyijJ-6"><mxGeometry relative="1" as="geometry"/></mxCell><mxCell id="hYFSbxmAjh6tLLgOyijJ-2" value="Asignación&lt;div&gt;respuesta&lt;br&gt;OK&lt;/div&gt;" style="rounded=1;whiteSpace=wrap;html=1;" vertex="1" parent="1"><mxGeometry x="232" y="442" width="128" height="55" as="geometry"/></mxCell><mxCell id="hYFSbxmAjh6tLLgOyijJ-10" style="edgeStyle=orthogonalEdgeStyle;rounded=0;orthogonalLoop=1;jettySize=auto;html=1;" edge="1" parent="1" source="hYFSbxmAjh6tLLgOyijJ-6" target="hYFSbxmAjh6tLLgOyijJ-8"><mxGeometry relative="1" as="geometry"/></mxCell><mxCell id="hYFSbxmAjh6tLLgOyijJ-6" value="Log Error" style="rounded=1;whiteSpace=wrap;html=1;" vertex="1" parent="1"><mxGeometry x="236" y="553" width="120" height="60" as="geometry"/></mxCell><mxCell id="hYFSbxmAjh6tLLgOyijJ-12" value="" style="edgeStyle=orthogonalEdgeStyle;rounded=0;orthogonalLoop=1;jettySize=auto;html=1;" edge="1" parent="1" source="hYFSbxmAjh6tLLgOyijJ-8" target="hYFSbxmAjh6tLLgOyijJ-11"><mxGeometry relative="1" as="geometry"/></mxCell><mxCell id="hYFSbxmAjh6tLLgOyijJ-8" value="Log Salida" style="whiteSpace=wrap;html=1;rounded=1;" vertex="1" parent="1"><mxGeometry x="484" y="553" width="120" height="60" as="geometry"/></mxCell><mxCell id="hYFSbxmAjh6tLLgOyijJ-14" value="" style="edgeStyle=orthogonalEdgeStyle;rounded=0;orthogonalLoop=1;jettySize=auto;html=1;" edge="1" parent="1" source="hYFSbxmAjh6tLLgOyijJ-11" target="hYFSbxmAjh6tLLgOyijJ-13"><mxGeometry relative="1" as="geometry"/></mxCell><mxCell id="hYFSbxmAjh6tLLgOyijJ-11" value="Return Response" style="rounded=1;whiteSpace=wrap;html=1;" vertex="1" parent="1"><mxGeometry x="484" y="659" width="120" height="60" as="geometry"/></mxCell><mxCell id="hYFSbxmAjh6tLLgOyijJ-13" value="FIN" style="ellipse;whiteSpace=wrap;html=1;rounded=1;" vertex="1" parent="1"><mxGeometry x="272" y="659" width="120" height="60" as="geometry"/></mxCell></root></mxGraphModel></diagram></mxfile>